<?xml version="1.0" encoding="utf-8"?>
<!-- Generator: Adobe Illustrator 19.1.0, SVG Export Plug-In . SVG Version: 6.00 Build 0)  -->
<svg version="1.1" id="Layer_1" xmlns="http://www.w3.org/2000/svg" xmlns:xlink="http://www.w3.org/1999/xlink" x="0px" y="0px"
	 viewBox="627.3 320 514 152" style="enable-background:new 627.3 320 514 152;" xml:space="preserve">
<style type="text/css">
	.st0{fill:#40679B;}
</style>
<g>
	<path class="st0" d="M669.3,438.8c-13.4,0-23.7-5-31.1-15.1c-7.3-10-11-22.3-11-36.6c0-14.5,3.7-26.7,11.1-36.4
		c7.4-9.7,18-14.6,31.7-14.6c13.9,0,24.3,5.2,31.4,15.5c7.1,10.4,10.6,22.3,10.6,35.7c0,14.4-3.6,26.7-10.9,36.6
		C693.9,433.8,683.3,438.8,669.3,438.8z M670,355.2c-12.2,0-18.3,10.7-18.3,32.3s6.1,32.3,18.3,32.3c11.8,0,17.7-10.7,17.7-32.3
		C687.7,365.9,681.8,355.2,670,355.2z"/>
	<path class="st0" d="M784.4,380.5v56.7h-21.1v-56.7h-8.5v-16.9h8.5c0.1-7.6,0.6-13.1,1.6-16.6c1-3.5,3.6-6.6,7.7-9.2
		c4.1-2.7,9.7-4,16.8-4c2.9,0,6.3,0.3,10,0.8v16.7c-3.1-0.2-5.7-0.4-7.7-0.4c-3,0-4.9,0.8-5.9,2.3c-1,1.6-1.5,4.1-1.5,7.6v2.8h13.3
		v16.9L784.4,380.5L784.4,380.5z"/>
	<path class="st0" d="M889.6,320.1L889.6,320.1c-41.9,0-75.8,34-75.8,76s33.9,76,75.8,76c41.9,0,75.8-34,75.8-76v-76H889.6z
		 M920.4,437.3h-19.1l-11.6-47.4l-11.6,47.4H860l-22.8-73.7h22.6l12,45l11.3-45h19.6l10.8,45.3l12.5-45.3h16.7L920.4,437.3z"/>
	<path class="st0" d="M1051.4,437.3h-21c-0.7-2.9-1-6.7-1-11.5c-3.7,5.2-7.3,8.7-11,10.4c-3.7,1.7-7.8,2.6-12.5,2.6
		c-6.9,0-12.4-1.9-16.7-5.6c-4.2-3.7-6.4-8.8-6.4-15.1c0-4.6,1.2-8.9,3.7-12.7c2.5-3.9,6.4-6.9,11.9-9.1c5.5-2.2,15.5-3.8,29.9-4.9
		v-4.2c0-7.1-3.6-10.7-10.7-10.7c-7.6,0-11.8,3.6-12.7,10.7l-20-1.9c1.3-8.3,5.3-14.3,11.9-17.8c6.6-3.5,14.1-5.2,22.4-5.2
		c5,0,9.7,0.6,14.1,1.7c4.4,1.2,7.9,2.9,10.3,5.2c2.5,2.3,4.2,4.8,5,7.4c0.9,2.6,1.3,7.1,1.3,13.6v33.4
		C1050.1,429.9,1050.5,434.5,1051.4,437.3z M1028.4,401.9c-15.1,1.5-22.7,6.1-22.7,13.8c0,2.6,0.8,4.8,2.4,6.7
		c1.6,1.9,3.9,2.8,6.8,2.8c3.8,0,7-1.6,9.6-4.8c2.6-3.2,3.9-7.1,3.9-11.8V401.9z"/>
	<path class="st0" d="M1124.5,380.5v31.2c0,3.9,0.6,6.5,1.7,7.8c1.2,1.3,3.9,2,8.2,2c2,0,4.3-0.1,6.9-0.3v16.1
		c-6.3,1.1-10.8,1.6-13.6,1.6c-9,0-15.4-1.7-19.2-5.2c-3.8-3.5-5.7-9.7-5.7-18.8v-34.3h-11.6v-16.9h12.9l1.7-21.8l18.7-1.5v23.2
		h15.8v16.9H1124.5z"/>
</g>
</svg>
